<?xml version="1.0" standalone="no"?>
<!DOCTYPE svg PUBLIC "-//W3C//DTD SVG 20010904//EN"
 "http://www.w3.org/TR/2001/REC-SVG-20010904/DTD/svg10.dtd">
<svg version="1.0" xmlns="http://www.w3.org/2000/svg"
 width="600.000000pt" height="600.000000pt" viewBox="0 0 600.000000 600.000000"
 preserveAspectRatio="xMidYMid meet">
<metadata>
Created by potrace 1.14, written by Peter Selinger 2001-2017
</metadata>
<g transform="translate(0.000000,600.000000) scale(0.100000,-0.100000)"
fill="#000000" stroke="none">
<path d="M2735 5989 c-1356 -118 -2471 -1152 -2694 -2501 -270 -1631 837
-3176 2471 -3447 1631 -270 3176 837 3447 2471 208 1252 -399 2500 -1514 3117
-512 283 -1120 411 -1710 360z m670 -138 c409 -62 766 -191 1100 -395 682
-418 1169 -1117 1319 -1896 44 -226 51 -305 50 -565 0 -186 -4 -281 -18 -370
-117 -797 -507 -1462 -1129 -1929 -408 -305 -848 -482 -1387 -558 -145 -20
-564 -17 -715 6 -797 117 -1462 507 -1929 1129 -305 408 -482 848 -558 1387
-20 145 -17 564 6 715 117 797 507 1462 1129 1929 408 305 890 499 1387 555
52 6 111 13 130 15 95 11 491 -4 615 -23z"/>
<path d="M1845 4069 c-89 -11 -222 -52 -300 -91 -173 -88 -311 -229 -403 -413
-78 -158 -109 -290 -118 -505 -16 -371 78 -658 285 -873 165 -171 367 -259
626 -273 475 -26 842 247 939 699 l6 27 -195 0 c-179 0 -195 -1 -195 -17 -1
-33 -47 -132 -86 -183 -144 -189 -443 -242 -685 -120 -132 67 -239 214 -283
390 -60 245 -36 537 62 725 43 83 153 197 228 238 152 80 369 81 528 0 105
-53 212 -191 232 -299 l6 -34 194 0 194 0 -5 23 c-3 12 -10 44 -15 72 -6 27
-23 79 -37 115 -106 266 -322 443 -616 505 -88 19 -273 26 -362 14z"/>
<path d="M4002 4069 c-418 -54 -731 -371 -806 -818 -21 -121 -21 -384 -1 -506
75 -462 378 -769 815 -825 116 -15 263 -7 380 20 107 26 267 104 346 169 124
103 231 268 274 423 33 118 48 108 -169 108 l-189 0 -21 -61 c-64 -190 -218
-303 -441 -324 -86 -8 -213 15 -297 55 -91 42 -195 148 -246 251 -67 136 -80
207 -81 429 0 170 3 205 22 275 82 300 283 468 557 468 161 -1 278 -45 375
-143 58 -59 97 -125 116 -200 l11 -45 192 -3 c218 -3 202 -11 176 93 -91 358
-361 588 -745 635 -95 11 -176 11 -268 -1z"/>
</g>
</svg>
